<svg width="18" height="18" viewBox="0 0 18 18" fill="none" xmlns="http://www.w3.org/2000/svg">
<circle cx="9" cy="5" r="4.25" stroke="white" stroke-width="1.5"/>
<path d="M0.62051 14C0.62051 13.7408 0.752884 13.4289 1.13276 13.0789C1.51322 12.7283 2.0968 12.3849 2.86844 12.0842C4.40795 11.4841 6.57558 11.1 9 11.1C11.4244 11.1 13.5921 11.4841 15.1316 12.0842C15.9032 12.3849 16.4868 12.7283 16.8672 13.0789C17.2471 13.4289 17.3795 13.7408 17.3795 14C17.3795 14.1506 17.3848 14.2986 17.3901 14.4456C17.4026 14.7925 17.4149 15.1338 17.3565 15.4902C17.2812 15.9499 17.1054 16.2745 16.7214 16.4594C15.9985 16.8076 14.7979 17.0506 13.3687 17.2006C11.9597 17.3486 10.3983 17.4 8.99996 17.4C7.60166 17.4 6.04026 17.3486 4.63124 17.2006C3.20203 17.0506 2.00146 16.8076 1.27857 16.4594C0.894546 16.2745 0.718752 15.9499 0.643486 15.4902C0.585135 15.1338 0.597412 14.7926 0.609893 14.4457C0.615183 14.2987 0.62051 14.1506 0.62051 14Z" stroke="white" stroke-width="1.2"/>
</svg>
