<svg width="32" height="32" viewBox="0 0 32 32" fill="none" xmlns="http://www.w3.org/2000/svg">
<path opacity="0.1" fill-rule="evenodd" clip-rule="evenodd" d="M0 16C0 7.16344 7.16344 0 16 0C24.8366 0 32 7.16344 32 16C32 24.8366 24.8366 32 16 32C7.16344 32 0 24.8366 0 16Z" fill="#F8F8F8"/>
<path fill-rule="evenodd" clip-rule="evenodd" d="M24.5333 15.9883C24.5333 16.5654 24.4746 17.1417 24.3592 17.7034C24.2467 18.2518 24.08 18.7902 23.8617 19.3049C23.6483 19.8105 23.3837 20.2977 23.0745 20.7521C22.77 21.2036 22.4191 21.6271 22.0337 22.0133C21.6474 22.3977 21.2224 22.7476 20.7711 23.0535C20.3152 23.3605 19.8273 23.6247 19.3215 23.8391C18.806 24.0562 18.2664 24.2227 17.7184 24.335C17.1559 24.4507 16.5776 24.5098 15.9996 24.5098C15.4213 24.5098 14.8429 24.4507 14.2812 24.335C13.7324 24.2227 13.1928 24.0562 12.6778 23.8391C12.1719 23.6247 11.6836 23.3605 11.2277 23.0535C10.7764 22.7476 10.3514 22.3977 9.96599 22.0133C9.58015 21.6271 9.22928 21.2036 8.92427 20.7521C8.61675 20.2977 8.35172 19.8105 8.13755 19.3049C7.91918 18.7902 7.75211 18.2518 7.63919 17.7034C7.52503 17.1417 7.46667 16.5654 7.46667 15.9883C7.46667 15.4108 7.52499 14.8332 7.63922 14.2727C7.75215 13.7243 7.91922 13.1851 8.13759 12.6712C8.35175 12.1653 8.61678 11.6776 8.9243 11.2232C9.22931 10.7714 9.58018 10.3486 9.96602 9.96207C10.3515 9.57759 10.7765 9.22852 11.2278 8.92312C11.6836 8.61478 12.172 8.35059 12.6778 8.13587C13.1929 7.91822 13.7324 7.75139 14.2812 7.63989C14.8429 7.52506 15.4213 7.4668 15.9997 7.4668C16.5776 7.4668 17.1559 7.52506 17.7185 7.63989C18.2664 7.75142 18.806 7.91825 19.3215 8.13587C19.8273 8.35056 20.3153 8.61478 20.7711 8.92312C21.2224 9.22852 21.6475 9.57759 22.0337 9.96207C22.4191 10.3486 22.77 10.7714 23.0746 11.2232C23.3837 11.6776 23.6483 12.1653 23.8617 12.6712C24.08 13.1851 24.2467 13.7243 24.3592 14.2727C24.4746 14.8332 24.5333 15.4108 24.5333 15.9883ZM12.8903 9.40618C10.8581 10.3645 9.34131 12.2343 8.86836 14.4879C9.06048 14.4895 12.0973 14.5278 15.5962 13.5995C14.3349 11.3618 12.9874 9.53562 12.8903 9.40618ZM16.2 14.7201C12.4477 15.8418 8.84711 15.7611 8.71795 15.7561C8.71585 15.8343 8.71211 15.91 8.71211 15.9883C8.71211 17.8577 9.41839 19.562 10.5793 20.8507C10.5768 20.8469 12.5711 17.3139 16.5038 16.0441C16.5988 16.0124 16.6955 15.9841 16.7913 15.9567C16.6084 15.5431 16.4087 15.1287 16.2 14.7201ZM20.8124 10.5267C19.5293 9.39701 17.8447 8.71176 15.9996 8.71176C15.4075 8.71176 14.8329 8.78333 14.2824 8.91564C14.3916 9.06212 15.7604 10.8754 17.0067 13.1605C19.7565 12.1312 20.7944 10.5533 20.8124 10.5267ZM17.288 17.1625C17.2718 17.1679 17.2556 17.1725 17.2397 17.1783C12.94 18.6751 11.5358 21.6915 11.5206 21.7245C12.7578 22.6852 14.3096 23.2648 15.9996 23.2648C17.0088 23.2648 17.9701 23.0596 18.8448 22.6881C18.7368 22.0523 18.3135 19.8238 17.288 17.1625ZM20.0719 22.0232C21.7082 20.9206 22.8703 19.1697 23.1945 17.1416C23.0445 17.0934 21.0057 16.4489 18.6535 16.8254C19.6093 19.4485 19.9977 21.5847 20.0719 22.0232ZM17.5676 14.2449C17.7368 14.5919 17.9006 14.9451 18.0518 15.3001C18.1056 15.4274 18.1581 15.5522 18.2093 15.677C20.7128 15.3625 23.1792 15.8917 23.2846 15.9133C23.2679 14.1883 22.65 12.6051 21.6275 11.3656C21.6137 11.3851 20.4449 13.0715 17.5676 14.2449Z" fill="#F8F8F8"/>
</svg>
