<svg width="32" height="32" viewBox="0 0 32 32" fill="none" xmlns="http://www.w3.org/2000/svg">
<path opacity="0.1" fill-rule="evenodd" clip-rule="evenodd" d="M0 16C0 7.16344 7.16344 0 16 0C24.8366 0 32 7.16344 32 16C32 24.8366 24.8366 32 16 32C7.16344 32 0 24.8366 0 16Z" fill="#F8F8F8"/>
<path fill-rule="evenodd" clip-rule="evenodd" d="M16.0008 7.4668C13.6833 7.4668 13.3924 7.47693 12.4822 7.51835C11.5737 7.55995 10.9536 7.70378 10.4111 7.9148C9.84981 8.13276 9.37372 8.42432 8.8994 8.89881C8.42473 9.37313 8.13317 9.84922 7.9145 10.4103C7.70294 10.9531 7.55894 11.5733 7.51805 12.4814C7.47734 13.3917 7.46667 13.6827 7.46667 16.0002C7.46667 18.3178 7.47699 18.6077 7.51823 19.5179C7.56001 20.4264 7.70383 21.0465 7.91468 21.5891C8.13282 22.1503 8.42437 22.6264 8.89887 23.1007C9.37301 23.5754 9.8491 23.8677 10.41 24.0856C10.9529 24.2967 11.5732 24.4405 12.4815 24.4821C13.3917 24.5235 13.6824 24.5336 15.9997 24.5336C18.3175 24.5336 18.6074 24.5235 19.5176 24.4821C20.4261 24.4405 21.0469 24.2967 21.5898 24.0856C22.1509 23.8677 22.6263 23.5754 23.1004 23.1007C23.5751 22.6264 23.8667 22.1503 24.0853 21.5893C24.2951 21.0465 24.4391 20.4262 24.4818 19.5181C24.5227 18.6079 24.5333 18.3178 24.5333 16.0002C24.5333 13.6827 24.5227 13.3918 24.4818 12.4816C24.4391 11.5732 24.2951 10.9531 24.0853 10.4105C23.8667 9.84922 23.5751 9.37313 23.1004 8.89881C22.6258 8.42414 22.1511 8.13258 21.5893 7.9148C21.0453 7.70378 20.4249 7.55995 19.5164 7.51835C18.6062 7.47693 18.3164 7.4668 15.9981 7.4668H16.0008ZM15.2353 9.00457C15.4625 9.00421 15.716 9.00457 16.0008 9.00457C18.2792 9.00457 18.5492 9.01274 19.449 9.05363C20.281 9.09168 20.7326 9.2307 21.0334 9.3475C21.4316 9.50217 21.7155 9.68706 22.014 9.98573C22.3127 10.2844 22.4976 10.5688 22.6526 10.9671C22.7694 11.2675 22.9086 11.7191 22.9464 12.5511C22.9873 13.4507 22.9962 13.7209 22.9962 15.9982C22.9962 18.2756 22.9873 18.5458 22.9464 19.4454C22.9084 20.2774 22.7694 20.729 22.6526 21.0294C22.4979 21.4276 22.3127 21.7112 22.014 22.0097C21.7153 22.3084 21.4318 22.4932 21.0334 22.6479C20.7329 22.7652 20.281 22.9039 19.449 22.942C18.5494 22.9828 18.2792 22.9917 16.0008 22.9917C13.7222 22.9917 13.4521 22.9828 12.5526 22.942C11.7205 22.9036 11.269 22.7645 10.968 22.6477C10.5698 22.4931 10.2853 22.3082 9.98666 22.0095C9.68799 21.7108 9.5031 21.4271 9.34808 21.0287C9.23128 20.7282 9.09208 20.2767 9.05421 19.4447C9.01332 18.5451 9.00514 18.2749 9.00514 15.9961C9.00514 13.7173 9.01332 13.4485 9.05421 12.549C9.09226 11.717 9.23128 11.2654 9.34808 10.9646C9.50275 10.5664 9.68799 10.2819 9.98666 9.98324C10.2853 9.68457 10.5698 9.49968 10.968 9.34466C11.2688 9.22732 11.7205 9.08866 12.5526 9.05043C13.3398 9.01488 13.6448 9.00421 15.2353 9.00243V9.00457ZM20.5558 10.4215C19.9905 10.4215 19.5318 10.8796 19.5318 11.4451C19.5318 12.0105 19.9905 12.4691 20.5558 12.4691C21.1212 12.4691 21.5799 12.0105 21.5799 11.4451C21.5799 10.8798 21.1212 10.4215 20.5558 10.4215ZM16.0008 11.6179C13.5807 11.6179 11.6186 13.5801 11.6186 16.0002C11.6186 18.4203 13.5807 20.3816 16.0008 20.3816C18.4209 20.3816 20.3824 18.4203 20.3824 16.0002C20.3824 13.5801 18.4209 11.6179 16.0008 11.6179ZM16.0008 13.1557C17.5717 13.1557 18.8453 14.4292 18.8453 16.0002C18.8453 17.5711 17.5717 18.8447 16.0008 18.8447C14.4298 18.8447 13.1563 17.5711 13.1563 16.0002C13.1563 14.4292 14.4298 13.1557 16.0008 13.1557Z" fill="#F8F8F8"/>
</svg>
