<svg width="20" height="20" viewBox="0 0 20 20" fill="none" xmlns="http://www.w3.org/2000/svg">
<path d="M2 3.146C2 2.513 2.526 2 3.175 2H16.825C17.474 2 18 2.513 18 3.146V16.854C18 17.487 17.474 18 16.825 18H3.175C2.526 18 2 17.487 2 16.854V3.146ZM6.943 15.394V8.169H4.542V15.394H6.943ZM5.743 7.182C6.58 7.182 7.101 6.628 7.101 5.934C7.086 5.225 6.581 4.686 5.759 4.686C4.937 4.686 4.4 5.226 4.4 5.934C4.4 6.628 4.921 7.182 5.727 7.182H5.743ZM10.651 15.394V11.359C10.651 11.143 10.667 10.927 10.731 10.773C10.904 10.342 11.299 9.895 11.963 9.895C12.832 9.895 13.179 10.557 13.179 11.529V15.394H15.58V11.25C15.58 9.03 14.396 7.998 12.816 7.998C11.542 7.998 10.971 8.698 10.651 9.191V9.216H10.635C10.6403 9.20765 10.6456 9.19932 10.651 9.191V8.169H8.251C8.281 8.847 8.251 15.394 8.251 15.394H10.651Z" fill="white"/>
</svg>
