<svg width="171" height="34" viewBox="0 0 171 34" fill="none" xmlns="http://www.w3.org/2000/svg">
<path d="M36.1119 3.26374C33.3524 1.97262 30.4018 1.03429 27.317 0.5C26.9381 1.18495 26.4955 2.10621 26.1903 2.83908C22.9111 2.34592 19.6621 2.34592 16.4431 2.83908C16.138 2.10621 15.6854 1.18495 15.3031 0.5C12.215 1.03429 9.261 1.97607 6.50146 3.27058C0.935455 11.6815 -0.573397 19.8836 0.181031 27.9692C3.8727 30.726 7.45037 32.4007 10.9677 33.4966C11.8361 32.3014 12.6106 31.0308 13.2779 29.6918C12.0071 29.2089 10.79 28.6131 9.63991 27.9213C9.94501 27.6952 10.2434 27.4589 10.5318 27.2158C17.5463 30.4966 25.1677 30.4966 32.0984 27.2158C32.3901 27.4589 32.6885 27.6952 32.9902 27.9213C31.8368 28.6164 30.6163 29.2123 29.3456 29.6953C30.0128 31.0308 30.784 32.3048 31.6558 33.5C35.1764 32.4041 38.7574 30.7295 42.4491 27.9692C43.3343 18.5959 40.9369 10.4692 36.1119 3.26374ZM14.2335 22.9966C12.1278 22.9966 10.401 21.0308 10.401 18.637C10.401 16.2432 12.091 14.274 14.2335 14.274C16.3761 14.274 18.1029 16.2397 18.066 18.637C18.0693 21.0308 16.3761 22.9966 14.2335 22.9966ZM28.3966 22.9966C26.291 22.9966 24.5641 21.0308 24.5641 18.637C24.5641 16.2432 26.254 14.274 28.3966 14.274C30.5392 14.274 32.266 16.2397 32.2291 18.637C32.2291 21.0308 30.5392 22.9966 28.3966 22.9966Z" fill="#23272A"/>
<path d="M57.2857 8.91856H66.4392C68.6458 8.91856 70.51 9.27129 72.0393 9.97336C73.5645 10.6754 74.7081 11.6548 75.466 12.9083C76.2234 14.1617 76.6056 15.5966 76.6056 17.2131C76.6056 18.7953 76.21 20.2302 75.4187 21.5144C74.6275 22.8021 73.4237 23.8192 71.8044 24.5692C70.1851 25.3192 68.1795 25.6959 65.7824 25.6959H57.2857V8.91856ZM65.6883 21.4322C67.1738 21.4322 68.3174 21.0521 69.1151 20.2952C69.9133 19.535 70.3124 18.5007 70.3124 17.1891C70.3124 15.9733 69.9566 15.0041 69.246 14.2781C68.5354 13.5521 67.4589 13.1857 66.0202 13.1857H63.1568V21.4322H65.6883Z" fill="#23272A"/>
<path d="M90.3096 25.6755C89.0421 25.3399 87.8985 24.8535 86.8828 24.2131V20.2337C87.6507 20.8398 88.6798 21.3399 89.9706 21.7337C91.2615 22.1241 92.5092 22.3193 93.7159 22.3193C94.2792 22.3193 94.7053 22.244 94.9934 22.0932C95.282 21.9426 95.4264 21.7611 95.4264 21.5522C95.4264 21.3125 95.3492 21.1138 95.1915 20.9528C95.0337 20.7919 94.7286 20.6583 94.2763 20.5453L91.4596 19.898C89.8468 19.5145 88.7031 18.9837 88.0229 18.3022C87.3421 17.6241 87.0032 16.7337 87.0032 15.6309C87.0032 14.7028 87.2983 13.8981 87.8955 13.2097C88.4887 12.5214 89.3337 11.9905 90.43 11.6172C91.5268 11.2405 92.8072 11.0522 94.2793 11.0522C95.5935 11.0522 96.7973 11.196 97.8942 11.4837C98.9905 11.7714 99.8957 12.1378 100.617 12.5864V16.3501C99.8787 15.9015 99.0337 15.5488 98.0683 15.2816C97.1059 15.0179 96.1171 14.8878 95.0974 14.8878C93.6253 14.8878 92.8914 15.1446 92.8914 15.6549C92.8914 15.8947 93.0053 16.0727 93.2332 16.1926C93.4611 16.3124 93.8801 16.4357 94.4873 16.5659L96.8341 16.9974C98.3669 17.2679 99.51 17.744 100.261 18.422C101.012 19.1001 101.388 20.1036 101.388 21.4323C101.388 22.8878 100.768 24.0419 99.5234 24.8981C98.2793 25.7542 96.5157 26.1823 94.229 26.1823C92.8843 26.1789 91.5771 26.0111 90.3096 25.6755Z" fill="#23272A"/>
<path d="M106.928 25.1719C105.584 24.5006 104.568 23.5897 103.89 22.439C103.213 21.2883 102.871 19.9938 102.871 18.5554C102.871 17.1171 103.223 15.8294 103.927 14.6958C104.631 13.5623 105.664 12.6719 107.025 12.0246C108.386 11.3774 110.013 11.0554 111.907 11.0554C114.254 11.0554 116.202 11.5589 117.752 12.5657V16.9527C117.205 16.5691 116.568 16.2575 115.84 16.0178C115.113 15.778 114.335 15.6581 113.503 15.6581C112.048 15.6581 110.912 15.9287 110.09 16.4732C109.268 17.0177 108.856 17.7266 108.856 18.6068C108.856 19.4698 109.255 20.1753 110.053 20.7301C110.851 21.2815 112.008 21.5589 113.527 21.5589C114.308 21.5589 115.079 21.4424 115.84 21.213C116.598 20.9801 117.252 20.6959 117.798 20.3602V24.6033C116.079 25.6581 114.083 26.1855 111.813 26.1855C109.902 26.1787 108.272 25.8431 106.928 25.1719Z" fill="#23272A"/>
<path d="M123.606 25.1721C122.251 24.5009 121.219 23.5831 120.507 22.4153C119.797 21.2475 119.438 19.9461 119.438 18.5077C119.438 17.0694 119.793 15.7851 120.507 14.6585C121.221 13.5317 122.248 12.6481 123.596 12.0077C124.94 11.3673 126.546 11.0488 128.407 11.0488C130.268 11.0488 131.874 11.3673 133.219 12.0077C134.563 12.6481 135.59 13.5249 136.294 14.6447C136.998 15.7646 137.35 17.0488 137.35 18.5043C137.35 19.9427 136.998 21.2441 136.294 22.4118C135.59 23.5796 134.56 24.4975 133.205 25.1687C131.851 25.8399 130.251 26.1755 128.404 26.1755C126.556 26.1755 124.957 25.8433 123.606 25.1721ZM130.737 20.9187C131.308 20.3365 131.596 19.566 131.596 18.6071C131.596 17.6482 131.311 16.8845 130.737 16.3194C130.168 15.7509 129.389 15.4666 128.404 15.4666C127.401 15.4666 126.616 15.7509 126.043 16.3194C125.473 16.8879 125.188 17.6482 125.188 18.6071C125.188 19.566 125.473 20.3365 126.043 20.9187C126.614 21.5009 127.401 21.7954 128.404 21.7954C129.389 21.792 130.168 21.5009 130.737 20.9187Z" fill="#23272A"/>
<path d="M151.452 11.9392V17.1173C150.856 16.7166 150.084 16.518 149.129 16.518C147.878 16.518 146.912 16.905 146.241 17.6789C145.568 18.4529 145.232 19.6584 145.232 21.2885V25.6995H139.482V11.6755H145.115V16.1344C145.427 14.5043 145.933 13.3023 146.631 12.5248C147.325 11.7509 148.223 11.3639 149.316 11.3639C150.144 11.3639 150.856 11.5557 151.452 11.9392Z" fill="#23272A"/>
<path d="M170.558 8.43906V25.6993H164.807V22.559C164.321 23.7405 163.584 24.6412 162.591 25.2576C161.598 25.8706 160.371 26.1788 158.916 26.1788C157.615 26.1788 156.482 25.8569 155.513 25.2096C154.544 24.5624 153.797 23.6754 153.27 22.5487C152.747 21.4219 152.482 20.148 152.482 18.7234C152.465 17.2542 152.743 15.9357 153.317 14.7678C153.887 13.6 154.695 12.6891 155.734 12.035C156.774 11.3809 157.961 11.0521 159.292 11.0521C162.032 11.0521 163.869 12.2678 164.807 14.6959V8.43906H170.558ZM163.949 20.8227C164.536 20.2405 164.828 19.4836 164.828 18.559C164.828 17.6651 164.543 16.9356 163.973 16.3774C163.402 15.8193 162.621 15.5384 161.639 15.5384C160.67 15.5384 159.896 15.8226 159.315 16.3911C158.735 16.9597 158.447 17.6959 158.447 18.6069C158.447 19.5179 158.735 20.261 159.315 20.8363C159.896 21.4117 160.66 21.6994 161.615 21.6994C162.584 21.696 163.362 21.4048 163.949 20.8227Z" fill="#23272A"/>
<path d="M81.4514 13.1683C83.0345 13.1683 84.3184 11.9908 84.3184 10.5382C84.3184 9.0856 83.0345 7.90808 81.4514 7.90808C79.8678 7.90808 78.5845 9.0856 78.5845 10.5382C78.5845 11.9908 79.8678 13.1683 81.4514 13.1683Z" fill="#23272A"/>
<path d="M78.582 14.9802C80.3386 15.7541 82.5183 15.7884 84.3153 14.9802V25.7747H78.582V14.9802Z" fill="#23272A"/>
</svg>
